<svg width="24" height="24" viewBox="0 0 24 24" xmlns="http://www.w3.org/2000/svg" role="img" aria-label="FinTrack favicon">
  <rect width="24" height="24" rx="4" fill="#F3F6FB"/>

  <!-- Pixel wallet body -->
  <rect x="4" y="8" width="13" height="9" fill="#1E88E5"/>
  <rect x="4" y="7" width="13" height="1" fill="#1565C0"/>
  <rect x="4" y="17" width="13" height="1" fill="#1565C0"/>
  <rect x="3" y="9" width="1" height="7" fill="#1565C0"/>
  <rect x="17" y="9" width="1" height="7" fill="#1565C0"/>

  <!-- Wallet clasp -->
  <rect x="13" y="11" width="3" height="3" fill="#90CAF9"/>
  <rect x="14" y="12" width="1" height="1" fill="#1565C0"/>

  <!-- Growth arrow -->
  <rect x="10" y="5" width="1" height="1" fill="#2E7D32"/>
  <rect x="11" y="4" width="1" height="1" fill="#2E7D32"/>
  <rect x="12" y="3" width="1" height="1" fill="#2E7D32"/>
  <rect x="13" y="2" width="1" height="1" fill="#2E7D32"/>
  <rect x="14" y="1" width="1" height="1" fill="#2E7D32"/>
  <rect x="14" y="2" width="1" height="1" fill="#2E7D32"/>
  <rect x="13" y="1" width="1" height="1" fill="#2E7D32"/>

  <!-- Coin accent -->
  <rect x="18" y="14" width="4" height="4" fill="#F9A825"/>
  <rect x="19" y="15" width="2" height="2" fill="#FFE082"/>
</svg>
